<svg xmlns="http://www.w3.org/2000/svg" id="Logo" viewBox="0 0 225 60"><defs><style>.cls-1{fill:#184d47}</style></defs><g><g><path d="M12.07,23.41h0V9.75A2.64,2.64,0,0,1,14.92,6.9H16.7V0H14.09C8.45,0,4.63,3.72,4.63,9.27V10h0V23.7a2.62,2.62,0,0,1-2.8,2.85H0v6.9H1.83a2.62,2.62,0,0,1,2.8,2.85V50h0v.77c0,5.55,3.82,9.27,9.46,9.27H16.7V53.1H14.92a2.64,2.64,0,0,1-2.85-2.85V36.59h0v-.77A9.55,9.55,0,0,0,10.23,30a9.59,9.59,0,0,0,1.84-5.84Z" class="cls-1"/><path d="M41.08,35.33H26.74c.68,2.61,3,4,5.84,4a7.23,7.23,0,0,0,4.93-1.74L39.77,40a9.78,9.78,0,0,1-7.72,3.38c-5.26,0-10-3.58-10-10a9.51,9.51,0,0,1,9.7-9.94C36.59,23.51,42.14,26.93,41.08,35.33ZM26.65,31.76h10a4.65,4.65,0,0,0-4.88-4.1A5,5,0,0,0,26.65,31.76Z" class="cls-1"/><path d="M42,38l4-1.06a3.27,3.27,0,0,0,3.19,2.56c1.25,0,2.46-.63,2.46-2,0-.92-.58-1.6-2.07-2.13l-2.37-.87C44,33.35,42.67,31.33,42.67,29c0-3.43,3-5.5,6.61-5.5s6,1.93,6.62,4.87L52,29.4a2.57,2.57,0,0,0-2.56-2c-1.31,0-2.08.72-2.08,1.64s.48,1.5,2,2l2.12.82c2.37.87,4.93,2.27,4.93,5.65,0,3.81-3.28,5.89-7.29,5.89C45.37,43.4,42.57,41.51,42,38Z" class="cls-1"/><path d="M58.5,16.85h4.93v4.34H58.5Zm0,7h4.93V43H58.5Z" class="cls-1"/><path d="M85.87,23.85V41.56c0,7.34-5.74,9.08-10.09,9.08a11.5,11.5,0,0,1-5.55-1.16v-4a9.72,9.72,0,0,0,4.69,1.06c3.66,0,6-1.74,6-4.63V40.4h-.24c-.48,1.06-2.61,3-6,3-4.44,0-9.22-3.33-9.22-10s4.78-9.94,9.22-9.94c3.38,0,5.51,1.88,6,2.94H81V23.85Zm-4.78,9.6A5.17,5.17,0,0,0,75.74,28a5.23,5.23,0,0,0-5.36,5.5,5.36,5.36,0,1,0,10.71,0Z" class="cls-1"/><path d="M107.3,31.76V43h-4.92V32.53c0-2.8-1.5-4.63-4.1-4.63s-4.1,1.83-4.1,4.63V43H89.25V23.85h4.93v2.6a6.57,6.57,0,0,1,5.84-3C104,23.51,107.3,25.92,107.3,31.76Z" class="cls-1"/><path d="M109.43,33.45c0-6.61,4.73-9.94,9.22-9.94,3.43,0,5.65,1.88,6.13,2.94h.1V23.89h4.92V43.06h-4.92V40.5h-.1c-.48,1.06-2.7,2.94-6.13,2.94C114.16,43.4,109.43,40.06,109.43,33.45Zm15.54,0a5.36,5.36,0,1,0-10.71,0,5.36,5.36,0,1,0,10.71,0Z" class="cls-1"/><path d="M143.56,38.57v3.81a5.21,5.21,0,0,1-3.33.87c-3.24,0-5.6-1.59-5.6-5.5v-9.9h-2.71v-4h2.71V19h4.92v4.87h4v4h-4v9.08c0,1,.53,1.93,2.17,1.93A8,8,0,0,0,143.56,38.57Z" class="cls-1"/><path d="M163.83,23.85V43h-4.92V40.4a6.69,6.69,0,0,1-5.89,3c-3.91,0-7.2-2.42-7.2-8.26V23.89h4.93V34.37c0,2.8,1.49,4.63,4.1,4.63s4.1-1.83,4.1-4.63V23.89h4.88Z" class="cls-1"/><path d="M179.08,23.65v4.73a5.85,5.85,0,0,0-1.25-.09c-3.72,0-6,2.55-6,6.42v8.35h-4.92V23.89h4.92v5c.68-2.95,2.56-5.36,6-5.36A6.78,6.78,0,0,1,179.08,23.65Z" class="cls-1"/><path d="M198.63,35.33H184.3c.67,2.61,3,4,5.84,4a7.22,7.22,0,0,0,4.92-1.74L197.33,40a9.79,9.79,0,0,1-7.72,3.38c-5.27,0-10-3.58-10-10a9.51,9.51,0,0,1,9.71-9.94C194.19,23.51,199.69,26.93,198.63,35.33Zm-14.38-3.57h10a4.65,4.65,0,0,0-4.88-4.1A5.06,5.06,0,0,0,184.25,31.76Z" class="cls-1"/></g><path d="M209.69,23.41h0V9.75a2.64,2.64,0,0,0-2.85-2.85h-1.79V0h2.61c5.65,0,9.46,3.72,9.46,9.27V10h0V23.7a2.62,2.62,0,0,0,2.8,2.85h1.83v6.9h-1.83a2.62,2.62,0,0,0-2.8,2.85V50h0v.77c0,5.55-3.81,9.27-9.46,9.27h-2.61V53.1h1.79a2.64,2.64,0,0,0,2.85-2.85V36.59h0v-.77A9.55,9.55,0,0,1,211.52,30a9.59,9.59,0,0,1-1.83-5.84v-.73Z" class="cls-1"/></g></svg>