<svg xmlns="http://www.w3.org/2000/svg" id="Logo" viewBox="0 0 212 60"><defs><style>.cls-1{fill:#cd2c4f}</style></defs><g><g><path d="M40.9,35.29H26.64c.69,2.6,3,4,5.83,4a7.18,7.18,0,0,0,4.91-1.72l2.24,2.38a9.73,9.73,0,0,1-7.7,3.37c-5.25,0-9.94-3.55-9.94-9.9a9.46,9.46,0,0,1,9.64-9.9C36.46,23.48,42,26.89,40.9,35.29Zm-14.34-3.6h10a4.63,4.63,0,0,0-4.88-4.07A5.06,5.06,0,0,0,26.56,31.69Z" class="cls-1"/><path d="M40.72,23.85h5L51,37.08l5.24-13.23h5.07l-8,19.07H48.71Z" class="cls-1"/><path d="M63.05,16.88H68v4.33H63.05Zm0,7H68V42.92H63.05Z" class="cls-1"/><path d="M90.33,16.88v26H85.42V40.35h-.11c-.48,1.06-2.68,2.93-6.09,2.93-4.44,0-9.17-3.3-9.17-9.9s4.73-9.9,9.17-9.9c3.41,0,5.61,1.87,6.09,2.93h.07V16.88Zm-4.8,16.5a5.32,5.32,0,1,0-10.64,0,5.32,5.32,0,1,0,10.64,0Z" class="cls-1"/><path d="M111.34,35.29H97.08c.69,2.6,3,4,5.83,4a7.18,7.18,0,0,0,4.91-1.72l2.24,2.38a9.73,9.73,0,0,1-7.7,3.37c-5.25,0-9.94-3.55-9.94-9.9a9.46,9.46,0,0,1,9.64-9.9C106.9,23.48,112.41,26.89,111.34,35.29ZM97,31.69h10a4.63,4.63,0,0,0-4.88-4.07A5.06,5.06,0,0,0,97,31.69Z" class="cls-1"/><path d="M131.51,31.69V42.92H126.6V32.5c0-2.79-1.51-4.62-4.08-4.62s-4.07,1.83-4.07,4.62V42.92h-4.91V23.85h4.91v2.6a6.55,6.55,0,0,1,5.84-3C128.21,23.48,131.51,25.9,131.51,31.69Z" class="cls-1"/><path d="M133.6,33.38c0-6.45,5-9.9,10.05-9.9a9.25,9.25,0,0,1,8.21,4.69l-3.59,2.31a5.47,5.47,0,0,0-4.59-2.56,5.2,5.2,0,0,0-5.24,5.46,5.21,5.21,0,0,0,5.24,5.47,5.48,5.48,0,0,0,4.59-2.57l3.59,2.31a9.31,9.31,0,0,1-8.21,4.69C138.62,43.28,133.6,39.84,133.6,33.38Z" class="cls-1"/><path d="M171,35.29H156.77c.7,2.6,3,4,5.83,4a7.22,7.22,0,0,0,4.92-1.72l2.23,2.38a9.7,9.7,0,0,1-7.7,3.37c-5.24,0-9.93-3.55-9.93-9.9a9.45,9.45,0,0,1,9.64-9.9C166.6,23.48,172.1,26.89,171,35.29Zm-14.34-3.6h10a4.61,4.61,0,0,0-4.87-4.07A5,5,0,0,0,156.7,31.69Z" class="cls-1"/></g><path d="M183.26,23.41h0V9.77a2.65,2.65,0,0,0-2.86-2.86h-1.77V0h2.61c5.64,0,9.43,3.71,9.43,9.26V10h0V23.68a2.65,2.65,0,0,0,2.82,2.87h1.81v6.9H193.5a2.65,2.65,0,0,0-2.82,2.87V50h0v.78c0,5.55-3.79,9.26-9.43,9.26h-2.61V53.09h1.77a2.65,2.65,0,0,0,2.86-2.86V36.59h0v-.78A9.47,9.47,0,0,1,185.08,30a9.47,9.47,0,0,1-1.82-5.81Z" class="cls-1"/><path d="M12,23.41h0V9.77a2.65,2.65,0,0,1,2.86-2.86h1.77V0H14.07C8.42,0,4.63,3.71,4.63,9.26V10h0V23.68a2.65,2.65,0,0,1-2.82,2.87H0v6.9H1.81a2.65,2.65,0,0,1,2.82,2.87V50h0v.78c0,5.55,3.79,9.26,9.44,9.26h2.61V53.09H14.91a2.65,2.65,0,0,1-2.86-2.86V36.59h0v-.78A9.47,9.47,0,0,0,10.23,30,9.47,9.47,0,0,0,12,24.19Z" class="cls-1"/></g></svg>