<svg xmlns="http://www.w3.org/2000/svg" id="Logo" viewBox="0 0 212 60"><defs><style>.cls-1{fill:#2d6187}</style></defs><g><g><path d="M31.44,35.56,29.06,38.2v4.7H24.14v-26h4.92V31.93l7.15-8.1h5.87l-7.59,8.4L42.92,42.9h-5.5Z" class="cls-1"/><path d="M44.61,16.86h4.91v26H44.61Z" class="cls-1"/><path d="M52.53,16.86h4.91v4.33H52.53Zm0,7h4.91V42.9H52.53Z" class="cls-1"/><path d="M78.42,31.68V42.9H73.5V32.48c0-2.78-1.5-4.62-4.07-4.62s-4.07,1.84-4.07,4.62V42.9H60.45V23.83h4.91v2.6a6.55,6.55,0,0,1,5.83-3C75.11,23.46,78.42,25.88,78.42,31.68Z" class="cls-1"/><path d="M81.42,16.86h4.91v4.33H81.42Zm0,7h4.91V42.9H81.42Z" class="cls-1"/><path d="M96.64,35.56,94.25,38.2v4.7H89.34v-26h4.91V31.93l7.16-8.1h5.86l-7.59,8.4,8.44,10.67h-5.5Z" class="cls-1"/><path d="M109.58,30.76H121v4.11H109.58Z" class="cls-1"/><path d="M122.82,33.36c0-6.45,5-9.9,10.05-9.9a9.24,9.24,0,0,1,8.21,4.7l-3.59,2.31a5.46,5.46,0,0,0-4.59-2.57,5.2,5.2,0,0,0-5.24,5.46,5.21,5.21,0,0,0,5.24,5.47,5.48,5.48,0,0,0,4.59-2.57l3.59,2.31a9.32,9.32,0,0,1-8.21,4.7C127.84,43.27,122.82,39.82,122.82,33.36Z" class="cls-1"/><path d="M155.34,23.61V28.3a7.42,7.42,0,0,0-1.24-.11c-3.71,0-6,2.57-6,6.38V42.9h-4.91V23.83h4.91v5c.66-2.93,2.53-5.32,6-5.32A5.09,5.09,0,0,1,155.34,23.61Z" class="cls-1"/><path d="M186.62,31.82V42.9h-5V32c0-2.71-1.39-4.18-3.52-4.18s-3.7,1.47-3.7,4.18V42.9h-4.91V32c0-2.71-1.43-4.18-3.52-4.18s-3.71,1.47-3.71,4.18V42.9H157.4V23.83h4.91v2.46a6.13,6.13,0,0,1,5.47-2.83,6,6,0,0,1,5.57,3.19,7.11,7.11,0,0,1,6.31-3.19C183.69,23.46,186.62,26,186.62,31.82Z" class="cls-1"/></g><path d="M199.7,23.41h0V9.77a2.65,2.65,0,0,0-2.86-2.86h-1.77V0h2.61c5.64,0,9.43,3.71,9.43,9.26V10h0V23.68a2.65,2.65,0,0,0,2.82,2.87h1.81v6.9h-1.81a2.65,2.65,0,0,0-2.82,2.87V50h0v.78c0,5.55-3.79,9.26-9.43,9.26h-2.61V53.09h1.77a2.65,2.65,0,0,0,2.86-2.86V36.59h0v-.78A9.47,9.47,0,0,1,201.52,30a9.47,9.47,0,0,1-1.82-5.81Z" class="cls-1"/><path d="M12,23.41h0V9.77a2.65,2.65,0,0,1,2.86-2.86h1.77V0H14.07C8.42,0,4.63,3.71,4.63,9.26V10h0V23.68a2.65,2.65,0,0,1-2.82,2.87H0v6.9H1.81a2.65,2.65,0,0,1,2.82,2.87V50h0v.78c0,5.55,3.79,9.26,9.44,9.26h2.61V53.09H14.91a2.65,2.65,0,0,1-2.86-2.86V36.59h0v-.78A9.41,9.41,0,0,0,10.22,30,9.41,9.41,0,0,0,12,24.19Z" class="cls-1"/></g></svg>